<svg preserveAspectRatio="none" overflow="visible" style="display: block;" width="23.9966" height="23.9966" viewBox="0 0 23.9966 23.9966" fill="none" xmlns="http://www.w3.org/2000/svg">
<g id="Treat">
<path id="Vector" d="M22.2745 13.7203C23.2255 13.7203 23.9965 12.9493 23.9965 11.9983C23.9965 11.0473 23.2255 10.2763 22.2745 10.2763C21.3235 10.2763 20.5525 11.0473 20.5525 11.9983C20.5525 12.9493 21.3235 13.7203 22.2745 13.7203Z" fill="#1A1A1A"/>
<path id="Vector_2" d="M22.2745 3.44395C23.2255 3.44395 23.9964 2.673 23.9964 1.72198C23.9964 0.770955 23.2255 0 22.2745 0C21.3234 0 20.5525 0.770955 20.5525 1.72198C20.5525 2.673 21.3234 3.44395 22.2745 3.44395Z" fill="#1A1A1A"/>
<path id="Vector_3" d="M1.72198 3.44395C2.673 3.44395 3.44395 2.673 3.44395 1.72198C3.44395 0.770955 2.673 0 1.72198 0C0.770955 0 0 0.770955 0 1.72198C0 2.673 0.770955 3.44395 1.72198 3.44395Z" fill="#1A1A1A"/>
<path id="Vector_4" d="M1.72198 23.9744C2.673 23.9744 3.44395 23.2034 3.44395 22.2524C3.44395 21.3014 2.673 20.5304 1.72198 20.5304C0.770955 20.5304 0 21.3014 0 22.2524C0 23.2034 0.770955 23.9744 1.72198 23.9744Z" fill="#1A1A1A"/>
<path id="Vector_5" d="M22.2745 23.9744C23.2255 23.9744 23.9965 23.2034 23.9965 22.2524C23.9965 21.3014 23.2255 20.5304 22.2745 20.5304C21.3235 20.5304 20.5525 21.3014 20.5525 22.2524C20.5525 23.2034 21.3235 23.9744 22.2745 23.9744Z" fill="#1A1A1A"/>
<path id="Vector_6" d="M1.72198 13.7203C2.673 13.7203 3.44395 12.9493 3.44395 11.9983C3.44395 11.0473 2.673 10.2763 1.72198 10.2763C0.770955 10.2763 0 11.0473 0 11.9983C0 12.9493 0.770955 13.7203 1.72198 13.7203Z" fill="#1A1A1A"/>
<path id="Vector_7" d="M11.9762 14.8534C13.5531 14.8534 14.8314 13.5752 14.8314 11.9983C14.8314 10.4214 13.5531 9.14315 11.9762 9.14315C10.3994 9.14315 9.12108 10.4214 9.12108 11.9983C9.12108 13.5752 10.3994 14.8534 11.9762 14.8534Z" fill="#1A1A1A"/>
<path id="Vector_8" d="M11.9762 23.9744C13.5531 23.9744 14.8314 22.6961 14.8314 21.1192C14.8314 19.5424 13.5531 18.2641 11.9762 18.2641C10.3994 18.2641 9.12108 19.5424 9.12108 21.1192C9.12108 22.6961 10.3994 23.9744 11.9762 23.9744Z" fill="#1A1A1A"/>
<path id="Vector_9" d="M11.9762 5.73252C13.5531 5.73252 14.8314 4.45423 14.8314 2.87737C14.8314 1.30052 13.5531 0.0222235 11.9762 0.0222235C10.3994 0.0222235 9.12108 1.30052 9.12108 2.87737C9.12108 4.45423 10.3994 5.73252 11.9762 5.73252Z" fill="#1A1A1A"/>
</g>
</svg>
